<svg width="385" height="124" viewBox="0 0 385 124" fill="none" xmlns="http://www.w3.org/2000/svg">
<path fill-rule="evenodd" clip-rule="evenodd" d="M24.8499 1.77213C21.5012 4.53665 17.6397 10.7984 14.6201 18.3638C13.1637 22.0136 11.2443 26.6437 10.3556 28.6536C9.46682 30.6635 7.93042 36.008 6.94242 40.5302C5.95356 45.0525 4.71052 50.3897 4.18126 52.3895C2.79981 57.6098 1.64382 73.1901 2.41419 76.2123C2.7737 77.6228 4.07507 79.566 5.30592 80.5308C8.85835 83.3145 10.6202 81.6235 12.4047 73.7136C16.4159 55.9388 32.82 25.7283 45.496 12.7708C55.0643 2.98995 54.0606 15.1681 44.138 29.2501C39.2633 36.1678 34.87 40.4151 29.7411 43.1696C26.4873 44.9164 26.1913 46.4147 28.6417 48.7416C30.4201 50.4308 33.203 50.7094 37.8262 49.6597C41.9636 48.7196 44.4575 51.3681 44.5358 56.7839C44.5872 60.3542 44.0231 61.9822 41.2924 66.1427C35.2043 75.4202 18.9707 86.0187 6.23821 89.0272C-2.38041 91.0645 -2.08097 92.476 7.21402 93.6225C13.2734 94.3698 20.9911 92.2649 30.8867 87.1662C45.3584 79.7086 53.4617 68.8113 53.4617 56.8067C53.4617 51.7939 53.1718 50.8392 50.8921 48.3414C49.4784 46.7929 46.8173 45.1009 44.9789 44.5811L41.6371 43.6364L46.6789 39.7363C52.3545 35.3465 55.4804 31.3998 58.8683 24.3478C61.9532 17.9271 62.2361 8.64506 59.4663 4.73947C54.8937 -1.70772 49.9476 -0.0139281 40.7362 11.1547C29.641 24.6082 21.7293 38.1631 15.0596 55.1476C11.0145 65.4493 11.2435 60.7607 15.6307 43.4775C19.352 28.8198 24.9291 15.0292 29.4791 9.23525C32.5998 5.26296 32.7339 4.15843 30.394 1.7027C28.2169 -0.582181 27.6929 -0.575789 24.8499 1.77213ZM180.275 7.86943C178.546 11.003 175.442 17.6202 168.809 32.3079C167.448 35.3228 165.311 41.2839 164.063 45.555C162.815 49.826 161.037 55.2025 160.114 57.5029C158.249 62.1476 154.873 77.4529 154.873 81.2589C154.873 84.3405 156.701 85.9694 159.738 85.5903C162.588 85.2349 162.562 85.2869 166.752 71.5922L170.106 60.6292L174.52 60.0637C179.565 59.4178 180.573 58.9226 190.187 52.3731C202.894 43.715 212.235 29.632 213.042 17.9134C213.693 8.47971 208.828 2.50757 203.056 5.65215C198.162 8.318 184.457 25.2395 177.2 37.5748C175.358 40.7075 174.13 42.2432 174.474 40.987C175.679 36.578 182.903 18.5639 184.981 14.7871C187.276 10.6138 187.661 7.24544 186.036 5.53977C184.168 3.57921 182.202 4.37495 180.275 7.86943ZM203.611 17.4621C203.588 27.9556 189.429 47.8161 177.977 53.4182C175.603 54.5794 173.531 55.3925 173.372 55.2253C172.717 54.5383 182.285 37.3327 186.622 31.3943C193.375 22.1516 200.96 13.5794 202.387 13.5794C203.258 13.5794 203.617 14.7177 203.611 17.4621ZM74.2853 39.5061C68.0762 42.4268 62.593 52.681 60.3446 65.5808C58.9788 73.4167 58.9745 74.2663 60.2898 77.1606C61.9576 80.8323 66.35 83.9175 69.9155 83.922C72.6262 83.9257 77.9013 78.8836 84.799 69.6947L88.2809 65.0555V69.2781C88.2809 75.1315 90.4658 78.4442 94.3272 78.4442C96.8029 78.4442 97.9467 77.6612 101.33 73.6478C103.555 71.0103 106.126 67.3377 107.044 65.4876C108.865 61.8159 111.271 59.4927 110.102 62.5349C108.566 66.531 108.498 75.3544 109.977 78.626C113.257 85.8799 118.399 84.7854 124.966 75.4357C128.799 69.9779 135.722 56.6395 135.722 54.711C135.722 52.2278 133.631 54.541 128.516 62.6847C118.048 79.3513 115.382 80.4504 117.736 67.1275C118.494 62.8364 119.914 57.6829 120.89 55.6739C123.217 50.8876 123.13 48.6575 120.547 46.8815C118.31 45.343 116.409 45.8555 113.661 48.7397C112.502 49.9566 112.179 49.7282 110.765 46.6906C109.889 44.8095 108.1 42.7365 106.789 42.0842C103.085 40.2406 97.4349 44.1206 93.4611 51.2366C89.3551 58.59 79.8503 71.2697 75.5458 75.136C68.6507 81.3302 66.6094 79.7551 68.2155 69.4773C69.1417 63.5517 69.2148 63.433 73.2477 61.2541C75.4996 60.0381 79.3132 56.8551 81.7227 54.1811C85.4962 49.9941 86.1047 48.8064 86.1047 45.6308C86.1047 42.7895 85.6442 41.6265 84.1009 40.5649C81.1038 38.5039 77.2911 38.0928 74.2853 39.5061ZM247.34 39.7619C243.814 41.5863 239.999 46.5462 237.168 52.9861C234.484 59.0925 221.498 77.4776 217.982 80.148C213.593 83.4835 213.996 81.6737 222.387 60.3688C224.317 55.4683 223.535 54.4579 217.308 53.8001C213.539 53.4027 212.715 52.9943 212.5 51.4129C212.357 50.3641 212.846 48.9782 213.588 48.3323C215.334 46.8111 215.318 44.0777 213.559 43.3687C211.133 42.3921 210.003 42.7594 207.565 45.3165C205.511 47.4735 205.239 48.3652 205.604 51.7619C206.08 56.1946 208.003 58.2712 211.671 58.316C212.988 58.3324 214.065 58.4996 214.065 58.6887C214.065 59.2396 209.774 69.6088 208.811 71.3839C207.243 74.2755 206.807 80.9757 207.993 83.9787C209.35 87.4165 212.507 88.9349 215.21 87.4476C219.204 85.2513 223.817 80.8003 227.713 75.3864C233.27 67.662 233.495 67.4601 232.823 70.812C231.642 76.7038 237.23 83.9257 242.971 83.9257C245.671 83.9257 250.315 80.1727 254.181 74.8675C255.816 72.6246 258.389 69.2306 259.899 67.3267L262.644 63.8651L262.175 69.2955C261.598 75.9683 262.89 79.6081 266.717 82.0903C272.654 85.9411 276.423 83.8407 285.445 71.6525C288.982 66.8745 292.007 63.1014 292.167 63.2685C292.327 63.4366 292.054 64.6846 291.562 66.0431C290.252 69.66 290.47 75.0008 292.023 77.3268C295.07 81.8948 303.194 78.3994 312.454 68.5363L319.099 61.4587L316.672 70.157L314.246 78.8553L306.432 86.6436C294.654 98.3823 287.185 109.285 287.185 114.739C287.185 121.454 295.186 126.086 301.538 123.049C306.003 120.913 312.657 106.697 318.138 87.58C321.421 76.1319 321.303 76.2963 333.323 66.2404L338.114 62.2325L338.111 68.413C338.108 75.6413 339.763 78.4442 344.036 78.4442C347.078 78.4442 351.449 73.9758 356.997 65.1971C358.902 62.1823 360.183 60.5378 359.844 61.5428C359.506 62.5477 359.032 66.2761 358.792 69.8272C358.116 79.8328 361.561 84.9635 367.496 82.7919C372.27 81.0461 387.361 55.9735 384.684 54.2368C384.245 53.9518 381.173 57.946 377.857 63.1123C371.672 72.7516 367.73 77.4054 366.683 76.3054C365.637 75.2073 368.25 60.8009 370.422 55.6885C372.667 50.4052 372.51 47.9449 369.83 46.4402C368.089 45.4618 363.69 47.1574 362.435 49.2897C362.097 49.8634 361.154 48.684 360.243 46.5489C359.228 44.17 357.78 42.4561 356.282 41.8577C352.769 40.4562 346.821 44.6121 342.896 51.2101C340.888 54.5867 337.328 58.4283 332.45 62.4856C322.233 70.9829 322.491 70.7846 322.969 69.7651C323.205 69.2626 325.121 65.2739 327.227 60.9023C330.983 53.1049 331.025 52.9176 329.442 51.0813C327.15 48.4227 324.096 48.695 322.265 51.7217C317.271 59.9732 301.427 75.6659 299.411 74.3586C297.198 72.9224 299.45 63.803 305.135 51.1818C307.797 45.2717 307.406 43.504 303.524 43.8977C301.079 44.1462 300.056 45.174 295.902 51.5481C286.153 66.5081 278.617 75.507 273.457 78.3528C269.64 80.4568 268.924 77.7188 270.769 68.0758C271.694 63.2402 272.008 62.7679 275.339 61.1846C280.808 58.5837 285.99 53.3616 287.664 48.7617C289.057 44.9337 289.058 44.5317 287.687 42.3346C285.833 39.3654 282.36 37.9649 278.659 38.693C275.004 39.4129 270.054 44.6925 266.489 51.6751C263.307 57.9058 252.374 72.176 248.014 75.7874C246.338 77.1761 244.184 78.4442 243.226 78.6059C240.944 78.9923 240.509 75.3727 241.971 68.1434C242.932 63.39 243.36 62.6884 246 61.5309C250.683 59.4771 256.471 53.9782 258.437 49.7145C260.746 44.7071 259.795 41.4794 255.446 39.5728C251.668 37.9155 250.873 37.9338 247.34 39.7619ZM80.8818 45.5787C80.8818 48.7169 80.3099 49.858 76.9873 53.3442C70.8382 59.7978 70.2567 58.6147 74.8572 49.012C76.9177 44.7108 79.0077 41.9006 80.1463 41.9006C80.551 41.9006 80.8818 43.556 80.8818 45.5787ZM254.397 43.2025C255.416 45.9907 253.135 50.9753 249.158 54.6488C246.944 56.6943 244.981 58.2082 244.796 58.0127C244.286 57.4782 248.57 47.6708 250.655 44.5975C252.678 41.6156 253.68 41.2419 254.397 43.2025ZM283.058 46.0538C282.841 49.6634 280.511 52.998 275.637 56.6752L273.228 58.4914L275.039 53.622C277.264 47.6407 281.036 41.7206 282.317 42.2003C282.84 42.3958 283.173 44.1298 283.058 46.0538ZM108.533 50.8419C109.434 54.7393 109.413 54.7977 103.989 62.7186C97.79 71.7722 95.478 73.2851 96.2745 67.7671C97.078 62.1987 101.838 49.9722 104.145 47.5512C106.604 44.9703 107.294 45.4883 108.533 50.8419ZM358.019 50.4984C358.754 54.6927 358.647 55.0362 354.785 60.9681C350.502 67.5478 346.704 71.7823 345.871 70.9071C344.929 69.9195 347.269 60.5917 349.952 54.6315C354.564 44.392 356.752 43.271 358.019 50.4984ZM6.99727 55.3075C5.97097 57.1594 5.72375 56.5664 6.56377 54.2697C6.86147 53.4529 7.28974 52.977 7.51345 53.2127C7.73804 53.4475 7.50563 54.3903 6.99727 55.3075ZM62.1178 66.9731C61.7905 68.8067 61.3265 70.1013 61.0871 69.85C60.8477 69.5988 60.92 67.8931 61.2473 66.0595C61.5755 64.2269 62.0394 62.9323 62.2788 63.1836C62.5182 63.4348 62.4459 65.1405 62.1178 66.9731ZM264.069 67.8867C263.742 69.7203 263.278 71.0149 263.038 70.7636C262.799 70.5124 262.871 68.8067 263.199 66.9731C263.527 65.1405 263.991 63.8459 264.23 64.0972C264.469 64.3484 264.397 66.0541 264.069 67.8867ZM235.085 68.5226C234.488 70.6978 234.22 71.0149 234.165 69.6116C234.077 67.3897 234.971 64.4498 235.549 65.0573C235.757 65.2757 235.548 66.8352 235.085 68.5226ZM43.7263 68.3024C43.4886 69.2571 42.1081 71.2104 40.6587 72.642L38.0229 75.2466L40.9042 70.9071C42.4893 68.5198 43.8699 66.5675 43.9726 66.5675C44.0753 66.5675 43.9639 67.3486 43.7263 68.3024ZM309.267 93.29C306.333 101.906 301.71 112.455 299.33 115.963C298.049 117.852 296.845 118.654 295.579 118.464C293.948 118.22 293.718 117.603 293.743 113.554C293.768 109.525 294.302 108.144 297.85 102.926C301.595 97.4166 310.417 86.6665 311.192 86.6665C311.373 86.6665 310.506 89.6466 309.267 93.29Z" fill="#5B7D76"/>
</svg>
